<svg width="32" height="32" viewBox="0 0 656 656" fill="none" xmlns="http://www.w3.org/2000/svg">
<path d="M259.891 249.609C167.663 278.785 119.681 228.948 124.306 134.828C126.734 111.779 143.355 104.998 165.763 104.744C217.019 104.089 277.821 104.681 328.423 104.491C433.195 99.0821 526.274 144 528.323 250.962C529.217 297.629 511.822 341.869 482.741 376.813C465.487 397.77 468.908 417.503 481.559 438.989C494.821 463.179 517.018 493.791 528.274 518.446C540.418 543.206 528.401 549.903 500.904 551.594C473.047 552.988 438.18 552.946 409.859 551.678C387.916 550.896 370.007 543.164 363.101 521.594C353.492 496.199 346.079 464.615 327.684 442.749C313.851 424.348 281.982 408.545 266.121 430.538C241.602 462.946 298.898 527.065 265.657 546.227C242.806 555.481 182.785 555.143 162.257 544.495C137.484 530.467 144.981 488.678 143.566 463.812C144.284 430.622 141.919 396.714 149.311 364.073C180.863 215.933 379.574 374.447 415.329 268.729C418.729 246.715 398.729 229.771 378.581 225.652C337.356 216.462 299.574 238.666 259.976 249.588L259.891 249.609Z" fill="#18181B"/>
</svg>
